<svg xmlns="http://www.w3.org/2000/svg" xmlns:xlink="http://www.w3.org/1999/xlink" width="65" zoomAndPan="magnify" viewBox="0 0 48.75 30.000001" height="40" preserveAspectRatio="xMidYMid meet" version="1.0"><defs><clipPath id="ab5ebecef2"><path d="M 8.175781 0.78125 L 37 0.78125 L 37 22 L 8.175781 22 Z M 8.175781 0.78125 " clip-rule="nonzero"/></clipPath><clipPath id="276b499f17"><path d="M 8.175781 13 L 37 13 L 37 22 L 8.175781 22 Z M 8.175781 13 " clip-rule="nonzero"/></clipPath><clipPath id="79063f8861"><path d="M 8.175781 16 L 37 16 L 37 22 L 8.175781 22 Z M 8.175781 16 " clip-rule="nonzero"/></clipPath><clipPath id="9a7fec3d3e"><path d="M 8.175781 9 L 18 9 L 18 16 L 8.175781 16 Z M 8.175781 9 " clip-rule="nonzero"/></clipPath><clipPath id="f40c5b2a8e"><path d="M 8.175781 15 L 36 15 L 36 20 L 8.175781 20 Z M 8.175781 15 " clip-rule="nonzero"/></clipPath><clipPath id="d8f76caeec"><path d="M 8.175781 13 L 10 13 L 10 17 L 8.175781 17 Z M 8.175781 13 " clip-rule="nonzero"/></clipPath><clipPath id="fac0b683aa"><path d="M 8.175781 8 L 16 8 L 16 12 L 8.175781 12 Z M 8.175781 8 " clip-rule="nonzero"/></clipPath><clipPath id="9f5594889e"><path d="M 8.175781 10 L 13 10 L 13 16 L 8.175781 16 Z M 8.175781 10 " clip-rule="nonzero"/></clipPath><clipPath id="0179d4e68e"><path d="M 12 7 L 40.277344 7 L 40.277344 28.503906 L 12 28.503906 Z M 12 7 " clip-rule="nonzero"/></clipPath><clipPath id="7f4192e9b2"><path d="M 12 20 L 40.277344 20 L 40.277344 28.503906 L 12 28.503906 Z M 12 20 " clip-rule="nonzero"/></clipPath><clipPath id="dc6b444a11"><path d="M 12 23 L 40.277344 23 L 40.277344 28.503906 L 12 28.503906 Z M 12 23 " clip-rule="nonzero"/></clipPath><clipPath id="5b05599ab5"><path d="M 38 20 L 40.277344 20 L 40.277344 24 L 38 24 Z M 38 20 " clip-rule="nonzero"/></clipPath></defs><g clip-path="url(#ab5ebecef2)"><path fill="#dddede" d="M 8.359375 13.886719 C 8.359375 13.886719 8.347656 12.605469 8.703125 9.609375 L 9.054688 7.265625 L 9.28125 7.035156 C 9.28125 7.035156 9.257812 4.882812 9.597656 4.652344 C 9.597656 4.652344 9.667969 3.679688 11.222656 3.617188 C 12.773438 3.554688 13.460938 3.429688 13.460938 3.429688 C 13.460938 3.429688 13.707031 2.699219 16.738281 2.066406 L 19.242188 1.078125 C 19.242188 1.078125 19.804688 0.78125 19.9375 1.195312 C 20.074219 1.605469 20.34375 1.863281 20.34375 1.863281 C 20.34375 1.863281 20.867188 1.921875 20.867188 2.746094 C 20.867188 2.746094 21.367188 5.148438 21.078125 5.890625 C 20.789062 6.628906 20.636719 6.6875 20.636719 6.6875 L 22.492188 8.023438 L 23.09375 9.277344 L 24.351562 10.074219 L 24.894531 10.402344 L 25.332031 10.871094 L 25.746094 11.179688 L 27.023438 11.632812 C 27.023438 11.632812 29.074219 11.554688 28.554688 12.984375 C 28.554688 12.984375 33.683594 14.398438 34.941406 15.359375 C 34.941406 15.359375 35.289062 15.632812 35.601562 16.632812 C 35.601562 16.632812 36.21875 16.945312 36.382812 17.949219 C 36.382812 17.949219 36.773438 19.011719 34.613281 19.816406 C 32.453125 20.625 28.570312 21.507812 25.246094 21.367188 C 21.921875 21.226562 21.242188 21.265625 17.273438 20.152344 C 13.304688 19.035156 9.257812 17.949219 9.257812 17.949219 C 9.257812 17.949219 8.222656 17.523438 8.207031 15.65625 C 8.195312 13.785156 8.359375 13.886719 8.359375 13.886719 Z M 8.359375 13.886719 " fill-opacity="1" fill-rule="nonzero"/></g><g clip-path="url(#276b499f17)"><path fill="#e090f8" d="M 8.207031 15.65625 C 8.195312 13.785156 8.359375 13.886719 8.359375 13.886719 C 9.996094 14.914062 13.5625 16.835938 19.242188 18.25 C 27.609375 20.332031 32.257812 18.328125 33.636719 17.941406 C 35.160156 17.511719 35.507812 16.898438 35.554688 16.496094 C 35.570312 16.539062 35.585938 16.585938 35.597656 16.632812 C 35.597656 16.632812 36.21875 16.945312 36.382812 17.945312 C 36.382812 17.945312 36.773438 19.011719 34.613281 19.816406 C 32.453125 20.625 28.570312 21.507812 25.246094 21.367188 C 21.921875 21.226562 21.238281 21.265625 17.269531 20.148438 C 13.300781 19.035156 9.257812 17.945312 9.257812 17.945312 C 9.257812 17.945312 8.222656 17.523438 8.207031 15.65625 Z M 8.207031 15.65625 " fill-opacity="1" fill-rule="nonzero"/></g><g clip-path="url(#79063f8861)"><path fill="#1df80a" d="M 22.089844 20.464844 C 23.402344 20.582031 24.203125 20.59375 24.898438 20.582031 C 27.683594 20.53125 28.136719 20.667969 33.207031 19.472656 C 34.644531 19.132812 35.722656 18.425781 36.375 17.910156 C 36.378906 17.921875 36.378906 17.933594 36.382812 17.949219 C 36.382812 17.949219 36.773438 19.011719 34.613281 19.816406 C 32.453125 20.625 28.570312 21.507812 25.246094 21.367188 C 21.921875 21.226562 21.242188 21.265625 17.273438 20.152344 C 13.304688 19.035156 9.257812 17.949219 9.257812 17.949219 C 9.257812 17.949219 8.753906 17.742188 8.445312 16.984375 C 13.386719 18.605469 19.785156 20.257812 22.089844 20.464844 Z M 22.089844 20.464844 " fill-opacity="1" fill-rule="nonzero"/></g><path fill="#1df80a" d="M 20.917969 3.90625 C 20.859375 4.828125 21.0625 5.363281 21.0625 5.363281 L 20.894531 5.273438 C 20.894531 5.273438 20.828125 4.65625 20.691406 3.710938 C 20.609375 3.132812 20.4375 2.351562 20.316406 1.832031 C 20.335938 1.851562 20.34375 1.863281 20.34375 1.863281 C 20.34375 1.863281 20.609375 1.890625 20.761719 2.203125 C 20.859375 2.816406 20.941406 3.488281 20.917969 3.90625 Z M 20.917969 3.90625 " fill-opacity="1" fill-rule="nonzero"/><path fill="#1df80a" d="M 15.65625 4.203125 L 16.894531 6.058594 L 16.773438 6.710938 C 16.761719 6.078125 16.265625 5.527344 15.273438 4.367188 C 14.285156 3.210938 13.046875 3.976562 11.21875 4.632812 C 10.316406 4.957031 9.804688 4.894531 9.519531 4.75 C 9.542969 4.707031 9.570312 4.671875 9.597656 4.652344 C 9.597656 4.652344 9.667969 3.679688 11.21875 3.617188 C 11.78125 3.59375 12.230469 3.5625 12.574219 3.53125 C 12.867188 3.503906 12.867188 3.503906 13.460938 3.429688 C 15.175781 3.207031 15.65625 4.203125 15.65625 4.203125 Z M 15.65625 4.203125 " fill-opacity="1" fill-rule="nonzero"/><path fill="#1df80a" d="M 19.136719 1.832031 C 19.136719 1.832031 20.152344 2.382812 20.316406 4.691406 L 20.503906 5.175781 L 17.265625 6.097656 C 17.265625 6.097656 16.488281 3.082031 16.027344 2.964844 C 15.570312 2.84375 19.136719 1.832031 19.136719 1.832031 Z M 19.136719 1.832031 " fill-opacity="1" fill-rule="nonzero"/><g clip-path="url(#9a7fec3d3e)"><path fill="#1df80a" d="M 8.703125 9.609375 L 8.78125 9.085938 C 9.203125 9.851562 9.871094 10.78125 10.855469 11.492188 C 12.878906 12.957031 16.210938 14.875 15.539062 11.179688 C 15.539062 11.179688 16.96875 12.105469 17.113281 13.578125 C 17.257812 15.050781 16.050781 15.464844 15.292969 15.300781 C 14.535156 15.132812 9.140625 12.496094 8.648438 10.074219 C 8.664062 9.921875 8.683594 9.769531 8.703125 9.609375 Z M 8.703125 9.609375 " fill-opacity="1" fill-rule="nonzero"/></g><path fill="#231f20" d="M 19.992188 1.351562 L 19.636719 1.464844 L 19.605469 1.363281 L 19.960938 1.246094 Z M 19.28125 1.582031 L 18.929688 1.699219 L 18.894531 1.59375 L 19.25 1.480469 Z M 18.574219 1.8125 L 18.21875 1.929688 L 18.183594 1.828125 L 18.539062 1.710938 Z M 17.863281 2.046875 L 17.527344 2.15625 L 17.511719 2.105469 L 17.527344 2.15625 L 17.507812 2.160156 L 17.472656 2.058594 L 17.492188 2.050781 L 17.828125 1.941406 Z M 17.15625 2.289062 L 16.804688 2.417969 L 16.769531 2.316406 L 17.121094 2.1875 Z M 16.457031 2.546875 L 16.105469 2.675781 L 16.066406 2.574219 L 16.417969 2.445312 Z M 15.753906 2.804688 L 15.402344 2.933594 L 15.367188 2.832031 L 15.71875 2.703125 Z M 15.050781 3.0625 L 14.699219 3.191406 L 14.664062 3.089844 L 15.015625 2.960938 Z M 15.050781 3.0625 " fill-opacity="1" fill-rule="nonzero"/><path stroke-linecap="butt" transform="matrix(0.024576, 0, 0, 0.0249053, -0.349313, -10.228819)" fill="none" stroke-linejoin="miter" d="M 1486.846874 1105.998735 C 1486.846874 1105.998735 1486.052145 1108.351397 1482.39639 1112.272501 " stroke="#231f20" stroke-width="4.339" stroke-opacity="1" stroke-miterlimit="10"/><g clip-path="url(#f40c5b2a8e)"><path fill="#231f20" d="M 35.828125 17.761719 C 35.734375 17.832031 35.628906 17.898438 35.511719 17.96875 L 35.457031 17.875 C 35.574219 17.808594 35.675781 17.742188 35.765625 17.675781 Z M 35.175781 18.148438 C 35.070312 18.203125 34.953125 18.253906 34.832031 18.308594 L 34.789062 18.207031 C 34.910156 18.15625 35.023438 18.105469 35.128906 18.050781 Z M 34.484375 18.453125 L 34.390625 18.488281 C 34.308594 18.519531 34.222656 18.550781 34.132812 18.585938 L 34.097656 18.480469 C 34.1875 18.449219 34.273438 18.417969 34.351562 18.390625 L 34.445312 18.351562 Z M 33.773438 18.703125 C 33.65625 18.738281 33.535156 18.773438 33.410156 18.808594 L 33.382812 18.703125 C 33.507812 18.667969 33.625 18.632812 33.742188 18.597656 Z M 33.046875 18.90625 L 32.683594 19 L 32.65625 18.894531 L 33.023438 18.804688 Z M 32.316406 19.085938 L 31.949219 19.167969 L 31.929688 19.058594 L 32.292969 18.980469 Z M 31.582031 19.242188 L 31.214844 19.3125 L 31.195312 19.203125 L 31.5625 19.136719 Z M 30.847656 19.375 L 30.46875 19.4375 L 30.453125 19.332031 L 30.832031 19.269531 Z M 30.105469 19.492188 L 29.730469 19.542969 L 29.714844 19.4375 L 30.089844 19.386719 Z M 29.355469 19.589844 L 28.984375 19.632812 L 28.972656 19.527344 L 29.34375 19.484375 Z M 28.605469 19.671875 L 28.238281 19.707031 L 28.226562 19.597656 L 28.597656 19.566406 Z M 27.863281 19.734375 L 27.484375 19.757812 L 27.476562 19.652344 L 27.855469 19.625 Z M 27.113281 19.777344 L 26.734375 19.792969 L 26.730469 19.6875 L 27.109375 19.671875 Z M 26.359375 19.804688 L 25.984375 19.8125 L 25.984375 19.703125 L 26.355469 19.699219 Z M 25.609375 19.8125 L 25.230469 19.808594 L 25.234375 19.703125 L 25.609375 19.707031 Z M 24.859375 19.800781 L 24.480469 19.789062 L 24.484375 19.679688 L 24.863281 19.695312 Z M 24.105469 19.769531 L 23.730469 19.746094 L 23.738281 19.640625 L 24.109375 19.664062 Z M 23.355469 19.71875 L 22.980469 19.683594 L 22.992188 19.578125 L 23.367188 19.609375 Z M 22.609375 19.644531 L 22.234375 19.601562 L 22.25 19.492188 L 22.621094 19.539062 Z M 21.859375 19.550781 L 21.492188 19.496094 L 21.507812 19.386719 L 21.875 19.445312 Z M 21.121094 19.433594 L 20.75 19.367188 L 20.769531 19.257812 L 21.136719 19.328125 Z M 20.378906 19.292969 L 20.015625 19.210938 L 20.035156 19.105469 L 20.402344 19.1875 Z M 19.644531 19.125 L 19.445312 19.078125 L 19.28125 19.035156 L 19.304688 18.929688 L 19.46875 18.972656 L 19.671875 19.023438 Z M 18.914062 18.941406 L 18.554688 18.84375 L 18.582031 18.738281 L 18.941406 18.835938 Z M 18.191406 18.742188 L 17.828125 18.640625 L 17.855469 18.535156 L 18.21875 18.636719 Z M 17.46875 18.535156 L 17.105469 18.429688 L 17.136719 18.324219 L 17.5 18.433594 Z M 16.75 18.320312 L 16.390625 18.207031 L 16.421875 18.101562 L 16.78125 18.214844 Z M 16.03125 18.089844 L 15.675781 17.976562 L 15.710938 17.875 L 16.0625 17.988281 Z M 15.316406 17.855469 L 14.960938 17.734375 L 14.996094 17.632812 L 15.351562 17.753906 Z M 14.605469 17.613281 L 14.25 17.488281 L 14.285156 17.386719 L 14.640625 17.511719 Z M 13.898438 17.359375 L 13.542969 17.230469 L 13.582031 17.128906 L 13.9375 17.257812 Z M 13.195312 17.097656 L 12.839844 16.964844 L 12.878906 16.863281 L 13.234375 17 Z M 12.492188 16.828125 L 12.140625 16.691406 L 12.179688 16.589844 L 12.53125 16.730469 Z M 11.792969 16.550781 L 11.441406 16.40625 L 11.480469 16.308594 L 11.835938 16.453125 Z M 11.101562 16.265625 L 10.75 16.117188 L 10.789062 16.015625 L 11.140625 16.167969 Z M 10.40625 15.96875 L 10.0625 15.820312 L 10.105469 15.71875 L 10.445312 15.871094 Z M 9.714844 15.664062 L 9.371094 15.507812 L 9.414062 15.410156 L 9.757812 15.566406 Z M 9.03125 15.351562 L 8.691406 15.1875 L 8.734375 15.089844 L 9.074219 15.253906 Z M 9.03125 15.351562 " fill-opacity="1" fill-rule="nonzero"/></g><g clip-path="url(#d8f76caeec)"><path stroke-linecap="butt" transform="matrix(0.024576, 0, 0, 0.0249053, -0.349313, -10.228819)" fill="none" stroke-linejoin="miter" d="M 355.311397 1012.20593 C 350.860913 1010.010111 348.476726 1008.755358 348.476726 1008.755358 " stroke="#231f20" stroke-width="4.339" stroke-opacity="1" stroke-miterlimit="10"/></g><path fill="#231f20" d="M 34.34375 14.863281 C 34.363281 14.894531 34.375 14.9375 34.378906 14.988281 C 34.382812 15.082031 34.351562 15.179688 34.277344 15.277344 L 34.191406 15.214844 C 34.25 15.132812 34.277344 15.0625 34.273438 14.992188 C 34.269531 14.964844 34.265625 14.941406 34.253906 14.925781 Z M 33.988281 15.542969 C 33.894531 15.609375 33.785156 15.671875 33.660156 15.738281 L 33.613281 15.640625 C 33.734375 15.578125 33.839844 15.515625 33.929688 15.457031 Z M 33.316406 15.894531 C 33.207031 15.9375 33.089844 15.984375 32.964844 16.027344 L 32.929688 15.925781 C 33.054688 15.882812 33.167969 15.839844 33.277344 15.792969 Z M 32.605469 16.144531 C 32.492188 16.179688 32.371094 16.214844 32.246094 16.25 L 32.21875 16.144531 C 32.34375 16.109375 32.460938 16.078125 32.574219 16.042969 Z M 31.878906 16.339844 C 31.753906 16.367188 31.632812 16.386719 31.507812 16.402344 L 31.492188 16.296875 C 31.613281 16.28125 31.734375 16.257812 31.855469 16.234375 Z M 31.132812 16.445312 C 31.007812 16.453125 30.882812 16.457031 30.753906 16.457031 L 30.753906 16.351562 C 30.878906 16.351562 31 16.34375 31.125 16.335938 Z M 30.382812 16.453125 L 30.007812 16.441406 L 30.011719 16.335938 L 30.386719 16.34375 Z M 29.640625 16.4375 L 29.265625 16.4375 L 29.265625 16.328125 L 29.644531 16.328125 Z M 28.894531 16.441406 L 28.519531 16.449219 L 28.515625 16.339844 L 28.890625 16.332031 Z M 28.144531 16.464844 C 28.019531 16.46875 27.894531 16.476562 27.773438 16.484375 L 27.765625 16.375 C 27.886719 16.367188 28.011719 16.359375 28.140625 16.355469 Z M 27.402344 16.511719 C 27.273438 16.523438 27.148438 16.535156 27.027344 16.550781 L 27.015625 16.441406 C 27.136719 16.429688 27.261719 16.417969 27.390625 16.40625 Z M 26.664062 16.597656 C 26.53125 16.617188 26.410156 16.640625 26.289062 16.664062 L 26.269531 16.554688 C 26.390625 16.53125 26.515625 16.511719 26.648438 16.492188 Z M 25.933594 16.742188 C 25.808594 16.773438 25.6875 16.8125 25.582031 16.847656 L 25.546875 16.746094 C 25.65625 16.707031 25.777344 16.671875 25.910156 16.636719 Z M 25.230469 16.972656 C 25.109375 17.015625 24.992188 17.050781 24.875 17.085938 L 24.84375 16.984375 C 24.960938 16.949219 25.078125 16.910156 25.199219 16.871094 Z M 24.507812 17.183594 C 24.375 17.21875 24.25 17.246094 24.132812 17.265625 L 24.117188 17.15625 C 24.230469 17.136719 24.351562 17.113281 24.484375 17.082031 Z M 23.761719 17.308594 C 23.605469 17.316406 23.476562 17.308594 23.375 17.28125 L 23.402344 17.175781 C 23.492188 17.199219 23.613281 17.207031 23.757812 17.199219 Z M 23.082031 16.992188 C 23.070312 16.886719 23.101562 16.753906 23.179688 16.597656 L 23.273438 16.644531 C 23.207031 16.78125 23.175781 16.894531 23.1875 16.980469 Z M 23.382812 16.269531 C 23.453125 16.179688 23.53125 16.078125 23.621094 15.972656 L 23.699219 16.042969 C 23.613281 16.148438 23.535156 16.246094 23.46875 16.335938 Z M 23.382812 16.269531 " fill-opacity="1" fill-rule="nonzero"/><path fill="#231f20" d="M 20.367188 18.398438 C 20.425781 18.328125 20.503906 18.234375 20.609375 18.117188 L 20.6875 18.1875 C 20.585938 18.304688 20.503906 18.398438 20.449219 18.46875 Z M 20.867188 17.835938 C 20.949219 17.742188 21.039062 17.652344 21.125 17.5625 L 21.203125 17.640625 C 21.113281 17.730469 21.027344 17.820312 20.945312 17.910156 Z M 21.390625 17.296875 C 21.484375 17.207031 21.574219 17.121094 21.664062 17.035156 L 21.738281 17.117188 C 21.648438 17.199219 21.554688 17.285156 21.464844 17.375 Z M 21.945312 16.78125 C 22.039062 16.699219 22.132812 16.613281 22.230469 16.535156 L 22.296875 16.617188 C 22.203125 16.699219 22.109375 16.78125 22.015625 16.863281 Z M 22.519531 16.292969 C 22.621094 16.214844 22.71875 16.136719 22.816406 16.0625 L 22.882812 16.148438 C 22.785156 16.222656 22.683594 16.300781 22.585938 16.378906 Z M 23.121094 15.84375 C 23.226562 15.769531 23.328125 15.695312 23.433594 15.628906 L 23.492188 15.71875 C 23.386719 15.785156 23.285156 15.859375 23.179688 15.929688 Z M 23.753906 15.425781 C 23.863281 15.359375 23.96875 15.296875 24.078125 15.238281 L 24.128906 15.332031 C 24.023438 15.390625 23.914062 15.453125 23.808594 15.519531 Z M 24.414062 15.0625 C 24.527344 15 24.636719 14.9375 24.730469 14.875 L 24.789062 14.964844 C 24.691406 15.027344 24.582031 15.09375 24.460938 15.15625 Z M 25.023438 14.652344 C 25.125 14.5625 25.203125 14.472656 25.257812 14.382812 L 25.347656 14.4375 C 25.289062 14.539062 25.203125 14.636719 25.09375 14.734375 Z M 25.34375 14.054688 C 25.335938 13.953125 25.289062 13.847656 25.203125 13.75 L 25.285156 13.679688 C 25.382812 13.796875 25.4375 13.917969 25.453125 14.046875 Z M 24.929688 13.511719 C 24.824219 13.445312 24.726562 13.394531 24.636719 13.359375 L 24.605469 13.34375 L 24.652344 13.246094 L 24.679688 13.261719 L 24.65625 13.308594 L 24.675781 13.257812 C 24.773438 13.296875 24.875 13.351562 24.984375 13.421875 Z M 24.269531 13.179688 C 24.15625 13.125 24.046875 13.070312 23.9375 13.011719 L 23.984375 12.914062 C 24.09375 12.972656 24.203125 13.027344 24.316406 13.085938 Z M 23.605469 12.839844 C 23.488281 12.773438 23.378906 12.714844 23.273438 12.652344 L 23.324219 12.558594 C 23.429688 12.617188 23.542969 12.679688 23.65625 12.742188 Z M 22.949219 12.460938 C 22.832031 12.390625 22.726562 12.324219 22.628906 12.257812 L 22.6875 12.167969 C 22.785156 12.230469 22.886719 12.300781 23.003906 12.371094 Z M 22.324219 12.03125 C 22.195312 11.925781 22.105469 11.832031 22.050781 11.75 L 22.144531 11.691406 C 22.1875 11.765625 22.269531 11.851562 22.390625 11.949219 Z M 21.894531 11.417969 C 21.816406 11.324219 21.726562 11.257812 21.617188 11.222656 L 21.648438 11.121094 C 21.777344 11.160156 21.886719 11.238281 21.976562 11.351562 Z M 21.289062 11.242188 C 21.195312 11.285156 21.109375 11.359375 21.039062 11.46875 L 20.949219 11.410156 C 21.03125 11.285156 21.132812 11.195312 21.246094 11.140625 Z M 20.890625 11.796875 C 20.882812 11.832031 20.871094 11.867188 20.863281 11.902344 C 20.84375 11.988281 20.820312 12.074219 20.796875 12.164062 L 20.691406 12.136719 C 20.714844 12.046875 20.738281 11.960938 20.757812 11.875 C 20.769531 11.839844 20.777344 11.800781 20.789062 11.765625 Z M 20.691406 12.527344 C 20.65625 12.648438 20.617188 12.769531 20.578125 12.890625 L 20.476562 12.855469 C 20.515625 12.734375 20.554688 12.613281 20.589844 12.496094 Z M 20.460938 13.25 C 20.417969 13.367188 20.375 13.488281 20.332031 13.605469 L 20.230469 13.566406 C 20.273438 13.449219 20.316406 13.332031 20.359375 13.214844 Z M 20.199219 13.953125 C 20.152344 14.070312 20.101562 14.191406 20.054688 14.308594 L 19.957031 14.265625 C 20.003906 14.148438 20.050781 14.03125 20.097656 13.914062 Z M 19.902344 14.65625 C 19.851562 14.769531 19.796875 14.882812 19.742188 14.996094 L 19.648438 14.949219 C 19.699219 14.835938 19.753906 14.722656 19.804688 14.609375 Z M 19.574219 15.34375 C 19.515625 15.457031 19.457031 15.566406 19.398438 15.679688 L 19.304688 15.625 C 19.363281 15.515625 19.421875 15.40625 19.480469 15.292969 Z M 19.214844 16.007812 C 19.152344 16.117188 19.089844 16.226562 19.023438 16.335938 L 18.933594 16.277344 C 18.996094 16.171875 19.0625 16.0625 19.125 15.953125 Z M 18.824219 16.65625 C 18.753906 16.761719 18.683594 16.867188 18.613281 16.972656 L 18.523438 16.910156 C 18.597656 16.808594 18.664062 16.703125 18.734375 16.597656 Z M 18.394531 17.277344 C 18.320312 17.382812 18.242188 17.480469 18.164062 17.578125 L 18.082031 17.511719 C 18.160156 17.414062 18.234375 17.316406 18.308594 17.214844 Z M 18.394531 17.277344 " fill-opacity="1" fill-rule="nonzero"/><path fill="#231f20" d="M 9.027344 7.21875 L 9.351562 7.027344 L 9.402344 7.121094 L 9.082031 7.3125 Z M 9.671875 6.835938 L 9.992188 6.644531 L 10.046875 6.734375 L 9.726562 6.925781 Z M 10.316406 6.449219 L 10.636719 6.257812 L 10.691406 6.351562 L 10.371094 6.542969 Z M 10.957031 6.066406 L 11.28125 5.875 L 11.335938 5.96875 L 11.011719 6.160156 Z M 11.601562 5.683594 L 11.921875 5.492188 L 11.976562 5.585938 L 11.65625 5.777344 Z M 12.246094 5.300781 L 12.566406 5.109375 L 12.621094 5.199219 L 12.300781 5.394531 Z M 12.886719 4.917969 L 13.027344 4.832031 L 13.054688 4.878906 L 13.027344 4.835938 C 13.070312 4.804688 13.132812 4.765625 13.210938 4.726562 L 13.261719 4.820312 C 13.1875 4.859375 13.128906 4.894531 13.085938 4.925781 L 13.082031 4.925781 L 12.941406 5.007812 Z M 13.554688 4.5625 C 13.675781 4.511719 13.796875 4.472656 13.914062 4.441406 L 13.941406 4.546875 C 13.828125 4.574219 13.710938 4.613281 13.59375 4.664062 Z M 14.292969 4.375 C 14.425781 4.363281 14.554688 4.367188 14.675781 4.386719 L 14.660156 4.492188 C 14.546875 4.476562 14.429688 4.472656 14.300781 4.484375 Z M 15.050781 4.5 C 15.164062 4.558594 15.269531 4.628906 15.367188 4.722656 L 15.296875 4.800781 C 15.207031 4.71875 15.109375 4.648438 15.003906 4.597656 Z M 15.617188 5.023438 C 15.667969 5.105469 15.738281 5.210938 15.824219 5.339844 L 15.734375 5.398438 C 15.648438 5.269531 15.582031 5.164062 15.527344 5.082031 Z M 16.035156 5.664062 C 16.113281 5.789062 16.179688 5.894531 16.226562 5.984375 L 16.132812 6.035156 C 16.085938 5.949219 16.023438 5.84375 15.945312 5.722656 Z M 16.375 6.339844 C 16.410156 6.488281 16.40625 6.625 16.355469 6.746094 L 16.257812 6.707031 C 16.296875 6.605469 16.300781 6.492188 16.269531 6.367188 Z M 16.117188 7.0625 C 16.035156 7.136719 15.929688 7.210938 15.800781 7.289062 L 15.746094 7.195312 C 15.867188 7.121094 15.96875 7.050781 16.046875 6.980469 Z M 15.472656 7.464844 C 15.414062 7.496094 15.351562 7.523438 15.285156 7.554688 L 15.132812 7.625 L 15.089844 7.527344 L 15.238281 7.457031 C 15.304688 7.425781 15.367188 7.398438 15.425781 7.367188 Z M 14.796875 7.789062 C 14.683594 7.84375 14.570312 7.902344 14.460938 7.957031 L 14.414062 7.863281 C 14.523438 7.804688 14.632812 7.75 14.75 7.691406 Z M 14.132812 8.136719 C 14.023438 8.199219 13.914062 8.261719 13.808594 8.324219 L 13.753906 8.230469 C 13.859375 8.167969 13.96875 8.105469 14.082031 8.042969 Z M 13.492188 8.519531 C 13.382812 8.589844 13.28125 8.660156 13.183594 8.730469 L 13.121094 8.640625 C 13.222656 8.570312 13.324219 8.5 13.433594 8.429688 Z M 12.882812 8.953125 C 12.785156 9.03125 12.6875 9.109375 12.597656 9.191406 L 12.527344 9.109375 C 12.621094 9.027344 12.714844 8.949219 12.820312 8.867188 Z M 12.332031 9.445312 C 12.242188 9.539062 12.160156 9.632812 12.085938 9.726562 L 12.003906 9.65625 C 12.078125 9.5625 12.164062 9.464844 12.253906 9.371094 Z M 11.871094 10.027344 C 11.804688 10.136719 11.75 10.246094 11.707031 10.355469 L 11.605469 10.316406 C 11.652344 10.199219 11.710938 10.085938 11.78125 9.972656 Z M 11.601562 10.707031 C 11.585938 10.796875 11.574219 10.890625 11.574219 10.980469 L 11.46875 10.980469 C 11.46875 10.882812 11.476562 10.785156 11.496094 10.6875 Z M 11.601562 10.707031 " fill-opacity="1" fill-rule="nonzero"/><path fill="#231f20" d="M 20.453125 11.164062 C 20.421875 11.078125 20.375 10.964844 20.308594 10.828125 L 20.40625 10.78125 C 20.472656 10.921875 20.519531 11.035156 20.554688 11.128906 Z M 20.140625 10.488281 C 20.082031 10.378906 20.019531 10.269531 19.953125 10.164062 L 20.046875 10.109375 C 20.109375 10.214844 20.171875 10.324219 20.234375 10.4375 Z M 19.75 9.851562 C 19.675781 9.746094 19.601562 9.648438 19.523438 9.554688 L 19.605469 9.484375 C 19.683594 9.582031 19.761719 9.683594 19.835938 9.789062 Z M 19.273438 9.28125 C 19.183594 9.1875 19.09375 9.105469 19 9.03125 L 19.066406 8.945312 C 19.164062 9.023438 19.257812 9.109375 19.351562 9.203125 Z M 18.699219 8.824219 C 18.589844 8.757812 18.480469 8.707031 18.371094 8.664062 L 18.40625 8.5625 C 18.523438 8.605469 18.640625 8.664062 18.753906 8.730469 Z M 18.019531 8.570312 C 17.902344 8.554688 17.78125 8.546875 17.660156 8.554688 L 17.652344 8.445312 C 17.78125 8.4375 17.910156 8.445312 18.035156 8.464844 Z M 17.285156 8.464844 C 17.15625 8.425781 17.035156 8.382812 16.921875 8.335938 L 16.960938 8.234375 C 17.074219 8.28125 17.191406 8.324219 17.316406 8.363281 Z M 16.578125 8.167969 C 16.457031 8.097656 16.351562 8.027344 16.261719 7.949219 L 16.332031 7.863281 C 16.417969 7.9375 16.515625 8.007812 16.632812 8.074219 Z M 16.003906 7.652344 C 15.980469 7.613281 15.957031 7.570312 15.941406 7.527344 L 16.035156 7.484375 C 16.054688 7.523438 16.074219 7.558594 16.097656 7.597656 Z M 16.003906 7.652344 " fill-opacity="1" fill-rule="nonzero"/><path fill="#231f20" d="M 14.59375 8.339844 C 14.613281 8.429688 14.664062 8.535156 14.75 8.660156 L 14.660156 8.71875 C 14.570312 8.585938 14.511719 8.464844 14.488281 8.367188 Z M 14.988281 8.933594 C 15.074219 9.015625 15.167969 9.089844 15.273438 9.160156 L 15.214844 9.25 C 15.105469 9.179688 15.003906 9.097656 14.914062 9.015625 Z M 15.59375 9.335938 C 15.703125 9.386719 15.816406 9.433594 15.933594 9.472656 L 15.902344 9.574219 C 15.777344 9.535156 15.660156 9.488281 15.550781 9.433594 Z M 16.289062 9.574219 C 16.40625 9.601562 16.527344 9.621094 16.652344 9.640625 L 16.636719 9.75 C 16.507812 9.730469 16.386719 9.707031 16.265625 9.679688 Z M 17.019531 9.683594 L 17.132812 9.695312 C 17.203125 9.707031 17.289062 9.734375 17.398438 9.777344 L 17.359375 9.878906 C 17.257812 9.839844 17.175781 9.8125 17.113281 9.800781 L 17.125 9.746094 L 17.121094 9.800781 L 17.011719 9.792969 Z M 17.742188 9.9375 C 17.851562 10 17.960938 10.066406 18.0625 10.140625 L 18.003906 10.230469 C 17.902344 10.160156 17.796875 10.09375 17.691406 10.035156 Z M 18.359375 10.382812 C 18.453125 10.46875 18.542969 10.558594 18.628906 10.652344 L 18.550781 10.726562 C 18.46875 10.632812 18.378906 10.546875 18.289062 10.464844 Z M 18.867188 10.953125 C 18.941406 11.054688 19.011719 11.160156 19.074219 11.273438 L 18.984375 11.328125 C 18.917969 11.21875 18.851562 11.117188 18.78125 11.015625 Z M 19.25 11.609375 C 19.28125 11.675781 19.3125 11.742188 19.339844 11.808594 L 19.289062 11.832031 L 19.324219 11.789062 L 19.449219 11.898438 L 19.378906 11.980469 L 19.246094 11.863281 L 19.242188 11.851562 C 19.214844 11.785156 19.183594 11.71875 19.15625 11.65625 Z M 19.726562 12.148438 L 20.007812 12.398438 L 19.9375 12.480469 L 19.65625 12.230469 Z M 19.726562 12.148438 " fill-opacity="1" fill-rule="nonzero"/><g clip-path="url(#fac0b683aa)"><path fill="#231f20" d="M 8.898438 8.578125 C 8.945312 8.660156 9.007812 8.765625 9.089844 8.894531 L 9 8.949219 C 8.917969 8.820312 8.855469 8.714844 8.808594 8.632812 Z M 9.296875 9.210938 C 9.367188 9.3125 9.4375 9.414062 9.507812 9.515625 L 9.421875 9.578125 C 9.351562 9.476562 9.277344 9.375 9.207031 9.269531 Z M 9.734375 9.820312 C 9.8125 9.921875 9.890625 10.019531 9.96875 10.113281 L 9.886719 10.183594 C 9.808594 10.089844 9.730469 9.988281 9.648438 9.886719 Z M 10.214844 10.394531 C 10.304688 10.492188 10.390625 10.578125 10.476562 10.660156 L 10.402344 10.738281 C 10.316406 10.65625 10.226562 10.566406 10.136719 10.46875 Z M 10.757812 10.902344 C 10.863281 10.984375 10.964844 11.050781 11.0625 11.105469 L 11.007812 11.203125 C 10.90625 11.144531 10.800781 11.074219 10.691406 10.988281 Z M 11.394531 11.242188 C 11.414062 11.246094 11.433594 11.25 11.453125 11.253906 C 11.539062 11.269531 11.636719 11.277344 11.746094 11.269531 L 11.75 11.378906 C 11.632812 11.382812 11.527344 11.378906 11.433594 11.363281 C 11.410156 11.359375 11.390625 11.351562 11.367188 11.347656 Z M 12.109375 11.226562 C 12.21875 11.207031 12.339844 11.179688 12.46875 11.144531 L 12.496094 11.25 C 12.363281 11.285156 12.242188 11.3125 12.125 11.332031 Z M 12.824219 11.035156 C 12.9375 11 13.054688 10.957031 13.175781 10.914062 L 13.214844 11.015625 C 13.089844 11.0625 12.972656 11.101562 12.859375 11.140625 Z M 13.523438 10.777344 C 13.636719 10.730469 13.75 10.683594 13.867188 10.632812 L 13.910156 10.730469 C 13.792969 10.78125 13.675781 10.832031 13.566406 10.878906 Z M 14.207031 10.480469 C 14.320312 10.429688 14.429688 10.375 14.546875 10.320312 L 14.589844 10.417969 C 14.476562 10.472656 14.363281 10.527344 14.253906 10.578125 Z M 14.882812 10.152344 C 14.996094 10.097656 15.105469 10.039062 15.214844 9.980469 L 15.265625 10.078125 C 15.15625 10.136719 15.042969 10.191406 14.929688 10.25 Z M 15.546875 9.804688 L 15.566406 9.792969 L 15.617188 9.886719 L 15.597656 9.898438 Z M 15.546875 9.804688 " fill-opacity="1" fill-rule="nonzero"/></g><path fill="#231f20" d="M 17.136719 10.128906 C 17.050781 10.144531 16.933594 10.175781 16.78125 10.214844 L 16.753906 10.113281 C 16.90625 10.070312 17.027344 10.039062 17.113281 10.019531 Z M 16.421875 10.320312 C 16.304688 10.355469 16.1875 10.390625 16.066406 10.429688 L 16.035156 10.328125 C 16.15625 10.289062 16.273438 10.25 16.394531 10.214844 Z M 15.714844 10.550781 C 15.597656 10.59375 15.480469 10.632812 15.363281 10.679688 L 15.324219 10.578125 C 15.445312 10.53125 15.5625 10.492188 15.679688 10.449219 Z M 15.015625 10.8125 C 14.898438 10.859375 14.785156 10.90625 14.671875 10.953125 L 14.628906 10.851562 C 14.746094 10.804688 14.859375 10.757812 14.976562 10.710938 Z M 14.328125 11.101562 C 14.210938 11.148438 14.097656 11.203125 13.984375 11.253906 L 13.941406 11.15625 C 14.054688 11.101562 14.167969 11.050781 14.285156 11 Z M 13.648438 11.414062 C 13.535156 11.464844 13.425781 11.523438 13.3125 11.578125 L 13.265625 11.480469 C 13.378906 11.425781 13.488281 11.371094 13.601562 11.316406 Z M 12.980469 11.75 C 12.871094 11.808594 12.761719 11.867188 12.652344 11.925781 L 12.601562 11.832031 C 12.710938 11.773438 12.820312 11.710938 12.933594 11.652344 Z M 12.328125 12.109375 L 12.078125 12.257812 L 12.023438 12.164062 L 12.273438 12.015625 Z M 12.328125 12.109375 " fill-opacity="1" fill-rule="nonzero"/><g clip-path="url(#9f5594889e)"><path fill="#231f20" d="M 8.628906 10.652344 C 8.675781 10.734375 8.746094 10.835938 8.828125 10.964844 L 8.742188 11.023438 C 8.65625 10.898438 8.585938 10.792969 8.535156 10.707031 Z M 9.039062 11.277344 C 9.113281 11.378906 9.183594 11.480469 9.257812 11.582031 L 9.171875 11.644531 C 9.097656 11.546875 9.023438 11.441406 8.953125 11.335938 Z M 9.480469 11.882812 C 9.5625 11.984375 9.640625 12.082031 9.71875 12.175781 L 9.636719 12.246094 C 9.558594 12.152344 9.476562 12.050781 9.398438 11.949219 Z M 9.960938 12.460938 C 10.050781 12.558594 10.136719 12.648438 10.21875 12.730469 L 10.148438 12.808594 C 10.0625 12.726562 9.972656 12.632812 9.882812 12.535156 Z M 10.496094 12.972656 C 10.53125 13 10.5625 13.023438 10.59375 13.046875 C 10.660156 13.09375 10.726562 13.148438 10.789062 13.210938 L 10.71875 13.289062 C 10.65625 13.230469 10.59375 13.179688 10.53125 13.136719 C 10.5 13.113281 10.464844 13.085938 10.433594 13.058594 Z M 11.042969 13.5 C 11.117188 13.59375 11.1875 13.699219 11.261719 13.8125 L 11.171875 13.871094 C 11.101562 13.761719 11.03125 13.65625 10.960938 13.566406 Z M 11.449219 14.144531 C 11.507812 14.253906 11.566406 14.367188 11.621094 14.488281 L 11.527344 14.535156 C 11.46875 14.414062 11.414062 14.304688 11.355469 14.195312 Z M 11.777344 14.839844 C 11.824219 14.953125 11.871094 15.070312 11.914062 15.1875 L 11.816406 15.226562 C 11.773438 15.109375 11.726562 14.992188 11.679688 14.882812 Z M 12.042969 15.542969 C 12.066406 15.621094 12.085938 15.683594 12.101562 15.726562 L 12 15.757812 C 11.984375 15.714844 11.964844 15.65625 11.941406 15.578125 Z M 12.042969 15.542969 " fill-opacity="1" fill-rule="nonzero"/></g><path fill="#2a0aef" d="M 15.660156 6.761719 C 15.660156 6.761719 16.832031 5.902344 16.730469 5.582031 C 16.628906 5.261719 16.335938 4.878906 16.199219 4.878906 C 16.199219 4.878906 16.28125 5.15625 16.09375 5.292969 C 15.902344 5.433594 14.902344 6.132812 15.089844 6.59375 C 15.28125 7.054688 15.488281 6.894531 15.660156 6.761719 Z M 15.660156 6.761719 " fill-opacity="1" fill-rule="nonzero"/><path fill="#2a0aef" d="M 14.621094 5.578125 C 14.421875 6.054688 13.652344 7.9375 12.574219 11.644531 L 12.140625 12.429688 L 11.480469 14.621094 L 11.222656 14.472656 C 11.222656 14.472656 11.894531 12.464844 11.78125 11.605469 C 11.664062 10.742188 13.667969 4.914062 14.214844 4.878906 C 14.488281 4.863281 14.601562 5.007812 14.648438 5.15625 C 14.695312 5.296875 14.679688 5.445312 14.621094 5.578125 Z M 14.621094 5.578125 " fill-opacity="1" fill-rule="nonzero"/><path fill="#4a0104" d="M 16.773438 6.710938 L 20.503906 6.898438 L 20.671875 6.714844 L 22.492188 8.023438 L 23.09375 9.277344 L 24.351562 10.074219 L 24.894531 10.402344 L 25.332031 10.871094 L 25.746094 11.179688 L 27.023438 11.632812 C 27.023438 11.632812 29.078125 11.554688 28.554688 12.984375 C 28.296875 13.140625 26.808594 12.28125 26.480469 12.253906 C 24.371094 12.097656 25.59375 13.910156 25.59375 13.910156 C 25.59375 13.910156 25.160156 13.179688 24.171875 12.71875 C 23.605469 12.453125 21.0625 10.457031 21.0625 10.457031 L 19.457031 8.355469 L 16.730469 7.324219 Z M 16.773438 6.710938 " fill-opacity="1" fill-rule="nonzero"/><path fill="#2a0aef" d="M 17.175781 8.46875 C 16.65625 9.273438 17.175781 9.253906 17.175781 9.253906 C 17.175781 9.253906 17.425781 9.152344 18.023438 8.589844 C 18.621094 8.03125 19.339844 8.84375 19.339844 8.84375 C 19.339844 8.84375 18.710938 8.933594 18.699219 9.738281 C 18.6875 10.542969 19.175781 10.242188 19.175781 10.242188 C 19.273438 9.933594 19.917969 9.539062 19.917969 9.539062 L 20.371094 10.210938 L 20.730469 10.210938 L 20.058594 10.851562 C 20.058594 10.851562 19.449219 11.832031 20.15625 11.808594 C 20.863281 11.785156 20.667969 11.179688 21.058594 10.980469 C 21.449219 10.785156 21.9375 11.113281 21.9375 11.113281 C 21.9375 11.113281 21.417969 11.421875 21.375 12.085938 C 21.328125 12.746094 22.015625 12.644531 22.015625 12.457031 C 22.015625 12.269531 22.546875 11.765625 22.546875 11.765625 L 22.949219 12.195312 C 22.320312 12.757812 22.394531 13.054688 22.394531 13.054688 C 22.285156 14.042969 23.089844 13.703125 23.089844 13.539062 C 23.089844 13.371094 23.613281 12.734375 23.613281 12.734375 L 24.375 13.085938 C 24.375 13.085938 23.722656 13.714844 23.980469 14.097656 C 24.242188 14.484375 24.632812 14.097656 24.632812 14.097656 C 24.824219 13.460938 26.761719 12.261719 26.761719 12.261719 L 27.734375 11.632812 C 27.332031 11.421875 26.90625 11.410156 26.90625 11.410156 L 26.113281 11.929688 L 25.601562 11.941406 C 24.960938 11.839844 24.808594 12.140625 24.808594 12.140625 L 23.992188 12.425781 C 23.992188 12.425781 24.570312 11.699219 24.886719 11.53125 C 25.199219 11.367188 26.308594 11.3125 26.308594 11.3125 L 25.332031 10.871094 C 25.386719 10.421875 25.167969 10.453125 24.722656 10.066406 C 24.277344 9.683594 23.960938 9.769531 23.960938 9.769531 C 23.960938 9.769531 23.960938 9.769531 23.546875 9.417969 C 23.132812 9.066406 22.730469 9.152344 22.730469 9.152344 L 22.242188 8.722656 L 22.558594 8.570312 L 22.949219 8.976562 C 22.949219 8.976562 23.101562 8.945312 23.285156 8.722656 C 23.472656 8.503906 23.265625 8.328125 22.90625 7.941406 C 22.546875 7.554688 22.222656 7.789062 22.222656 7.789062 L 21.65625 7.976562 L 21.375 7.507812 L 21.699219 7.378906 L 20.925781 6.675781 C 21.363281 5.992188 20.894531 5.585938 20.894531 5.585938 C 20.9375 6.167969 20.296875 6.441406 20.296875 6.441406 L 16.894531 6.058594 L 16.730469 6.9375 L 18.90625 7.226562 C 18.90625 7.226562 17.699219 7.667969 17.175781 8.46875 Z M 23.183594 11.308594 C 23.183594 11.308594 23.738281 10.78125 23.761719 10.761719 C 23.785156 10.746094 24.089844 10.601562 24.003906 10.53125 C 23.921875 10.464844 23.871094 10.371094 24.617188 10.296875 C 24.617188 10.296875 24.898438 10.46875 25.160156 10.832031 Z M 21.695312 10.402344 L 22.160156 9.804688 C 22.160156 9.804688 22.160156 9.804688 22.75 9.757812 C 23.335938 9.710938 23.820312 9.855469 23.820312 9.855469 C 22.019531 10.207031 21.695312 10.402344 21.695312 10.402344 Z M 19.457031 7.933594 C 19.457031 7.933594 20.363281 7.511719 20.429688 7.367188 C 20.496094 7.222656 21.136719 7.441406 21.054688 7.800781 C 20.976562 8.164062 20.75 8.207031 20.75 8.207031 C 20.75 8.207031 21.375 8.269531 21.550781 9.21875 C 21.550781 9.21875 20.582031 9.21875 20.441406 9.382812 C 20.441406 9.382812 20.242188 8.59375 19.957031 8.558594 C 19.957031 8.558594 19.9375 7.78125 19.457031 7.933594 Z M 19.457031 7.933594 " fill-opacity="1" fill-rule="nonzero"/><g clip-path="url(#0179d4e68e)"><path fill="#dddede" d="M 40.09375 20.882812 C 40.09375 20.882812 40.105469 19.601562 39.75 16.605469 L 39.398438 14.261719 L 39.171875 14.027344 C 39.171875 14.027344 39.195312 11.878906 38.855469 11.648438 C 38.855469 11.648438 38.785156 10.675781 37.234375 10.613281 C 35.679688 10.550781 34.992188 10.421875 34.992188 10.421875 C 34.992188 10.421875 34.746094 9.695312 31.714844 9.0625 L 29.210938 8.074219 C 29.210938 8.074219 28.648438 7.777344 28.515625 8.191406 C 28.378906 8.601562 28.109375 8.855469 28.109375 8.855469 C 28.109375 8.855469 27.585938 8.917969 27.585938 9.742188 C 27.585938 9.742188 27.085938 12.144531 27.375 12.886719 C 27.664062 13.625 27.816406 13.683594 27.816406 13.683594 L 25.960938 15.015625 L 25.359375 16.273438 L 24.101562 17.070312 L 23.558594 17.394531 L 23.121094 17.867188 L 22.707031 18.175781 L 21.429688 18.628906 C 21.429688 18.628906 19.378906 18.546875 19.898438 19.980469 C 19.898438 19.980469 14.769531 21.394531 13.511719 22.355469 C 13.511719 22.355469 13.164062 22.628906 12.855469 23.628906 C 12.855469 23.628906 12.234375 23.941406 12.070312 24.941406 C 12.070312 24.941406 11.679688 26.007812 13.839844 26.8125 C 16 27.621094 19.882812 28.503906 23.207031 28.363281 C 26.53125 28.222656 27.210938 28.261719 31.183594 27.144531 C 35.152344 26.03125 39.195312 24.941406 39.195312 24.941406 C 39.195312 24.941406 40.230469 24.519531 40.246094 22.648438 C 40.257812 20.78125 40.09375 20.882812 40.09375 20.882812 Z M 40.09375 20.882812 " fill-opacity="1" fill-rule="nonzero"/></g><g clip-path="url(#7f4192e9b2)"><path fill="#e090f8" d="M 40.246094 22.648438 C 40.257812 20.78125 40.09375 20.882812 40.09375 20.882812 C 38.457031 21.910156 34.890625 23.828125 29.210938 25.242188 C 20.84375 27.328125 16.195312 25.324219 14.816406 24.9375 C 13.292969 24.507812 12.945312 23.894531 12.898438 23.492188 C 12.882812 23.535156 12.867188 23.582031 12.855469 23.628906 C 12.855469 23.628906 12.234375 23.941406 12.070312 24.941406 C 12.070312 24.941406 11.679688 26.003906 13.839844 26.8125 C 16 27.621094 19.882812 28.503906 23.207031 28.363281 C 26.53125 28.222656 27.214844 28.261719 31.183594 27.144531 C 35.152344 26.03125 39.195312 24.941406 39.195312 24.941406 C 39.195312 24.941406 40.230469 24.519531 40.246094 22.648438 Z M 40.246094 22.648438 " fill-opacity="1" fill-rule="nonzero"/></g><g clip-path="url(#dc6b444a11)"><path fill="#1df80a" d="M 26.363281 27.457031 C 25.050781 27.578125 24.25 27.589844 23.554688 27.578125 C 20.769531 27.523438 20.316406 27.664062 15.246094 26.464844 C 13.808594 26.128906 12.730469 25.417969 12.078125 24.90625 C 12.074219 24.917969 12.074219 24.929688 12.070312 24.941406 C 12.070312 24.941406 11.679688 26.007812 13.839844 26.8125 C 16 27.621094 19.882812 28.503906 23.207031 28.363281 C 26.53125 28.222656 27.214844 28.261719 31.183594 27.144531 C 35.152344 26.03125 39.195312 24.941406 39.195312 24.941406 C 39.195312 24.941406 39.699219 24.738281 40.007812 23.976562 C 35.066406 25.601562 28.667969 27.253906 26.363281 27.457031 Z M 26.363281 27.457031 " fill-opacity="1" fill-rule="nonzero"/></g><path fill="#1df80a" d="M 27.535156 10.902344 C 27.59375 11.824219 27.390625 12.359375 27.390625 12.359375 L 27.558594 12.265625 C 27.558594 12.265625 27.625 11.652344 27.761719 10.707031 C 27.84375 10.128906 28.015625 9.347656 28.136719 8.828125 C 28.117188 8.847656 28.109375 8.855469 28.109375 8.855469 C 28.109375 8.855469 27.84375 8.886719 27.691406 9.199219 C 27.59375 9.8125 27.511719 10.484375 27.535156 10.902344 Z M 27.535156 10.902344 " fill-opacity="1" fill-rule="nonzero"/><path fill="#1df80a" d="M 32.796875 11.199219 L 31.558594 13.054688 L 31.679688 13.707031 C 31.691406 13.074219 32.1875 12.523438 33.179688 11.363281 C 34.167969 10.207031 35.40625 10.96875 37.234375 11.628906 C 38.136719 11.953125 38.648438 11.890625 38.933594 11.746094 C 38.910156 11.699219 38.882812 11.667969 38.855469 11.648438 C 38.855469 11.648438 38.785156 10.675781 37.234375 10.613281 C 36.671875 10.589844 36.222656 10.558594 35.878906 10.527344 C 35.585938 10.5 35.585938 10.5 34.992188 10.421875 C 33.277344 10.199219 32.796875 11.199219 32.796875 11.199219 Z M 32.796875 11.199219 " fill-opacity="1" fill-rule="nonzero"/><path fill="#1df80a" d="M 29.316406 8.828125 C 29.316406 8.828125 28.300781 9.375 28.136719 11.6875 L 27.949219 12.171875 L 31.1875 13.09375 C 31.1875 13.09375 31.964844 10.078125 32.425781 9.960938 C 32.882812 9.839844 29.316406 8.828125 29.316406 8.828125 Z M 29.316406 8.828125 " fill-opacity="1" fill-rule="nonzero"/><path fill="#1df80a" d="M 39.75 16.605469 L 39.671875 16.082031 C 39.25 16.847656 38.582031 17.773438 37.597656 18.488281 C 35.574219 19.953125 32.242188 21.871094 32.914062 18.175781 C 32.914062 18.175781 31.484375 19.101562 31.339844 20.574219 C 31.199219 22.046875 32.402344 22.460938 33.160156 22.292969 C 33.917969 22.128906 39.3125 19.492188 39.804688 17.070312 C 39.789062 16.917969 39.769531 16.765625 39.75 16.605469 Z M 39.75 16.605469 " fill-opacity="1" fill-rule="nonzero"/><path fill="#231f20" d="M 28.492188 8.242188 L 28.847656 8.359375 L 28.816406 8.460938 L 28.460938 8.34375 Z M 29.203125 8.476562 L 29.558594 8.589844 L 29.527344 8.695312 L 29.171875 8.578125 Z M 29.914062 8.707031 L 30.269531 8.824219 L 30.234375 8.925781 L 29.882812 8.808594 Z M 30.625 8.9375 L 30.960938 9.046875 L 30.980469 9.054688 L 30.945312 9.15625 L 30.925781 9.148438 L 30.941406 9.097656 L 30.925781 9.148438 L 30.589844 9.042969 Z M 31.332031 9.183594 L 31.683594 9.3125 L 31.648438 9.414062 L 31.296875 9.285156 Z M 32.035156 9.441406 L 32.386719 9.570312 L 32.347656 9.671875 L 31.996094 9.542969 Z M 32.734375 9.699219 L 33.085938 9.828125 L 33.050781 9.929688 L 32.699219 9.800781 Z M 33.4375 9.953125 L 33.789062 10.082031 L 33.753906 10.183594 L 33.402344 10.054688 Z M 33.4375 9.953125 " fill-opacity="1" fill-rule="nonzero"/><path stroke-linecap="butt" transform="matrix(0.024576, 0, 0, 0.0249053, -0.349313, -10.228819)" fill="none" stroke-linejoin="miter" d="M 513.144622 1386.906618 C 513.144622 1386.906618 513.939351 1389.102436 517.595106 1393.180384 " stroke="#231f20" stroke-width="4.339" stroke-opacity="1" stroke-miterlimit="10"/><path fill="#231f20" d="M 12.6875 24.671875 C 12.777344 24.738281 12.878906 24.804688 12.996094 24.871094 L 12.941406 24.964844 C 12.824219 24.894531 12.71875 24.828125 12.625 24.757812 Z M 13.324219 25.046875 C 13.429688 25.097656 13.542969 25.152344 13.664062 25.203125 L 13.621094 25.304688 C 13.5 25.25 13.382812 25.195312 13.277344 25.144531 Z M 14.007812 25.347656 L 14.101562 25.382812 C 14.179688 25.414062 14.265625 25.445312 14.355469 25.476562 L 14.324219 25.578125 C 14.230469 25.546875 14.144531 25.515625 14.0625 25.484375 L 13.96875 25.449219 Z M 14.714844 25.59375 C 14.828125 25.628906 14.945312 25.664062 15.070312 25.699219 L 15.042969 25.804688 C 14.917969 25.769531 14.796875 25.734375 14.683594 25.695312 Z M 15.429688 25.796875 L 15.796875 25.890625 L 15.769531 25.996094 L 15.40625 25.902344 Z M 16.160156 25.976562 L 16.527344 26.054688 L 16.503906 26.160156 L 16.136719 26.082031 Z M 16.890625 26.128906 L 17.257812 26.199219 L 17.238281 26.304688 L 16.871094 26.238281 Z M 17.621094 26.265625 L 18 26.324219 L 17.984375 26.433594 L 17.605469 26.371094 Z M 18.363281 26.378906 L 18.738281 26.433594 L 18.722656 26.539062 L 18.347656 26.488281 Z M 19.109375 26.480469 L 19.480469 26.523438 L 19.46875 26.628906 L 19.097656 26.585938 Z M 19.855469 26.558594 L 20.226562 26.59375 L 20.214844 26.699219 L 19.847656 26.667969 Z M 20.597656 26.621094 L 20.976562 26.648438 L 20.96875 26.753906 L 20.589844 26.730469 Z M 21.34375 26.667969 L 21.722656 26.683594 L 21.71875 26.789062 L 21.339844 26.773438 Z M 22.097656 26.691406 L 22.46875 26.699219 L 22.46875 26.808594 L 22.09375 26.800781 Z M 22.84375 26.699219 L 23.21875 26.695312 L 23.222656 26.804688 L 22.84375 26.808594 Z M 23.59375 26.6875 L 23.96875 26.675781 L 23.972656 26.785156 L 23.59375 26.796875 Z M 24.34375 26.65625 L 24.714844 26.632812 L 24.722656 26.742188 L 24.347656 26.765625 Z M 25.085938 26.605469 L 25.464844 26.570312 L 25.472656 26.679688 L 25.097656 26.714844 Z M 25.832031 26.535156 L 26.207031 26.488281 L 26.21875 26.597656 L 25.84375 26.640625 Z M 26.578125 26.4375 L 26.945312 26.382812 L 26.960938 26.488281 L 26.59375 26.546875 Z M 27.316406 26.320312 L 27.683594 26.253906 L 27.703125 26.359375 L 27.332031 26.429688 Z M 28.050781 26.179688 L 28.417969 26.101562 L 28.4375 26.207031 L 28.074219 26.289062 Z M 28.78125 26.015625 L 28.984375 25.96875 L 29.148438 25.925781 L 29.171875 26.03125 L 29.007812 26.070312 L 28.808594 26.121094 Z M 29.511719 25.832031 L 29.871094 25.734375 L 29.898438 25.839844 L 29.539062 25.933594 Z M 30.234375 25.632812 L 30.597656 25.53125 L 30.625 25.636719 L 30.261719 25.738281 Z M 30.953125 25.425781 L 31.316406 25.320312 L 31.347656 25.421875 L 30.984375 25.53125 Z M 31.671875 25.210938 L 32.03125 25.097656 L 32.0625 25.203125 L 31.703125 25.3125 Z M 32.390625 24.984375 L 32.742188 24.867188 L 32.777344 24.972656 L 32.421875 25.085938 Z M 33.101562 24.75 L 33.457031 24.628906 L 33.492188 24.730469 L 33.136719 24.851562 Z M 33.8125 24.503906 L 34.167969 24.378906 L 34.203125 24.480469 L 33.847656 24.609375 Z M 34.515625 24.253906 L 34.871094 24.125 L 34.910156 24.226562 L 34.554688 24.355469 Z M 35.21875 23.992188 L 35.574219 23.859375 L 35.613281 23.960938 L 35.257812 24.09375 Z M 35.921875 23.722656 L 36.273438 23.585938 L 36.3125 23.683594 L 35.960938 23.824219 Z M 36.617188 23.445312 L 36.972656 23.300781 L 37.011719 23.402344 L 36.660156 23.546875 Z M 37.3125 23.160156 L 37.664062 23.011719 L 37.703125 23.113281 L 37.351562 23.261719 Z M 38.007812 22.863281 L 38.347656 22.714844 L 38.390625 22.8125 L 38.046875 22.964844 Z M 38.695312 22.5625 L 39.039062 22.40625 L 39.082031 22.503906 L 38.738281 22.660156 Z M 39.378906 22.246094 L 39.71875 22.085938 L 39.765625 22.183594 L 39.421875 22.347656 Z M 39.378906 22.246094 " fill-opacity="1" fill-rule="nonzero"/><g clip-path="url(#5b05599ab5)"><path stroke-linecap="butt" transform="matrix(0.024576, 0, 0, 0.0249053, -0.349313, -10.228819)" fill="none" stroke-linejoin="miter" d="M 1644.680099 1293.113813 C 1649.130583 1290.917994 1651.51477 1289.663241 1651.51477 1289.663241 " stroke="#231f20" stroke-width="4.339" stroke-opacity="1" stroke-miterlimit="10"/></g><path fill="#231f20" d="M 14.199219 21.921875 C 14.1875 21.9375 14.183594 21.957031 14.179688 21.988281 C 14.175781 22.054688 14.203125 22.128906 14.261719 22.207031 L 14.175781 22.273438 C 14.101562 22.171875 14.070312 22.074219 14.074219 21.980469 C 14.078125 21.929688 14.089844 21.890625 14.109375 21.859375 Z M 14.523438 22.449219 C 14.613281 22.511719 14.71875 22.574219 14.839844 22.636719 L 14.792969 22.730469 C 14.667969 22.667969 14.558594 22.605469 14.464844 22.539062 Z M 15.175781 22.789062 C 15.285156 22.832031 15.398438 22.875 15.523438 22.921875 L 15.488281 23.023438 C 15.363281 22.976562 15.246094 22.933594 15.136719 22.890625 Z M 15.878906 23.035156 C 15.992188 23.070312 16.109375 23.105469 16.234375 23.140625 L 16.207031 23.246094 C 16.082031 23.210938 15.960938 23.175781 15.847656 23.140625 Z M 16.597656 23.230469 C 16.71875 23.253906 16.839844 23.273438 16.960938 23.292969 L 16.945312 23.398438 C 16.820312 23.382812 16.699219 23.359375 16.574219 23.335938 Z M 17.328125 23.332031 C 17.453125 23.339844 17.574219 23.34375 17.699219 23.347656 L 17.699219 23.453125 C 17.570312 23.453125 17.445312 23.449219 17.320312 23.4375 Z M 18.066406 23.339844 L 18.441406 23.328125 L 18.445312 23.4375 L 18.070312 23.445312 Z M 18.808594 23.324219 L 19.1875 23.324219 L 19.1875 23.433594 L 18.8125 23.433594 Z M 19.5625 23.328125 L 19.9375 23.335938 L 19.933594 23.445312 L 19.558594 23.433594 Z M 20.3125 23.351562 C 20.441406 23.355469 20.566406 23.363281 20.6875 23.371094 L 20.679688 23.480469 C 20.558594 23.472656 20.433594 23.464844 20.308594 23.457031 Z M 21.0625 23.398438 C 21.191406 23.410156 21.316406 23.425781 21.4375 23.4375 L 21.425781 23.546875 C 21.304688 23.53125 21.179688 23.519531 21.050781 23.507812 Z M 21.804688 23.488281 C 21.9375 23.507812 22.0625 23.527344 22.183594 23.550781 L 22.164062 23.65625 C 22.042969 23.632812 21.921875 23.613281 21.789062 23.59375 Z M 22.542969 23.632812 C 22.675781 23.667969 22.796875 23.703125 22.90625 23.742188 L 22.871094 23.84375 C 22.765625 23.804688 22.644531 23.769531 22.519531 23.738281 Z M 23.253906 23.867188 C 23.375 23.90625 23.492188 23.945312 23.609375 23.976562 L 23.582031 24.082031 C 23.460938 24.046875 23.34375 24.007812 23.222656 23.96875 Z M 23.96875 24.074219 C 24.101562 24.105469 24.222656 24.132812 24.335938 24.152344 L 24.320312 24.257812 C 24.203125 24.238281 24.078125 24.214844 23.945312 24.179688 Z M 24.695312 24.195312 C 24.839844 24.203125 24.960938 24.195312 25.050781 24.171875 L 25.078125 24.273438 C 24.976562 24.300781 24.847656 24.3125 24.691406 24.304688 Z M 25.265625 23.972656 C 25.277344 23.886719 25.246094 23.777344 25.179688 23.640625 L 25.273438 23.589844 C 25.351562 23.75 25.382812 23.878906 25.371094 23.988281 Z M 24.984375 23.332031 C 24.917969 23.238281 24.839844 23.144531 24.753906 23.039062 L 24.832031 22.96875 C 24.921875 23.074219 25.003906 23.171875 25.070312 23.265625 Z M 24.984375 23.332031 " fill-opacity="1" fill-rule="nonzero"/><path fill="#231f20" d="M 28.003906 25.460938 C 27.949219 25.394531 27.867188 25.300781 27.765625 25.183594 L 27.84375 25.109375 C 27.949219 25.230469 28.027344 25.324219 28.085938 25.394531 Z M 27.511719 24.902344 C 27.425781 24.8125 27.339844 24.722656 27.253906 24.632812 L 27.328125 24.558594 C 27.417969 24.648438 27.503906 24.738281 27.585938 24.828125 Z M 26.988281 24.371094 C 26.898438 24.28125 26.808594 24.195312 26.714844 24.109375 L 26.789062 24.03125 C 26.878906 24.117188 26.96875 24.203125 27.0625 24.292969 Z M 26.4375 23.859375 C 26.34375 23.773438 26.25 23.691406 26.15625 23.613281 L 26.222656 23.53125 C 26.320312 23.609375 26.414062 23.691406 26.507812 23.777344 Z M 25.867188 23.375 C 25.769531 23.296875 25.667969 23.21875 25.570312 23.144531 L 25.636719 23.058594 C 25.734375 23.132812 25.832031 23.210938 25.933594 23.289062 Z M 25.273438 22.925781 C 25.167969 22.851562 25.066406 22.78125 24.960938 22.714844 L 25.019531 22.625 C 25.125 22.691406 25.230469 22.765625 25.332031 22.839844 Z M 24.644531 22.515625 C 24.539062 22.449219 24.429688 22.386719 24.324219 22.328125 L 24.375 22.234375 C 24.484375 22.292969 24.589844 22.355469 24.699219 22.421875 Z M 23.992188 22.152344 C 23.871094 22.085938 23.761719 22.023438 23.664062 21.960938 L 23.722656 21.867188 C 23.820312 21.929688 23.925781 21.992188 24.042969 22.054688 Z M 23.359375 21.730469 C 23.25 21.632812 23.164062 21.53125 23.105469 21.433594 L 23.195312 21.378906 C 23.25 21.464844 23.328125 21.558594 23.429688 21.648438 Z M 23.003906 21.042969 C 23.015625 20.914062 23.070312 20.792969 23.167969 20.671875 L 23.25 20.742188 C 23.164062 20.84375 23.117188 20.945312 23.109375 21.050781 Z M 23.46875 20.417969 C 23.578125 20.347656 23.679688 20.292969 23.777344 20.253906 L 23.796875 20.304688 L 23.773438 20.257812 L 23.800781 20.242188 L 23.847656 20.339844 L 23.816406 20.355469 C 23.726562 20.390625 23.628906 20.441406 23.523438 20.507812 Z M 24.136719 20.078125 C 24.246094 20.023438 24.359375 19.96875 24.46875 19.910156 L 24.515625 20.007812 C 24.40625 20.0625 24.296875 20.121094 24.183594 20.175781 Z M 24.796875 19.738281 C 24.914062 19.675781 25.023438 19.613281 25.128906 19.554688 L 25.179688 19.648438 C 25.074219 19.707031 24.964844 19.769531 24.847656 19.832031 Z M 25.449219 19.363281 C 25.566406 19.292969 25.667969 19.226562 25.765625 19.164062 L 25.824219 19.253906 C 25.726562 19.316406 25.621094 19.386719 25.503906 19.457031 Z M 26.0625 18.945312 C 26.183594 18.84375 26.265625 18.761719 26.308594 18.6875 L 26.402344 18.746094 C 26.347656 18.828125 26.257812 18.921875 26.128906 19.027344 Z M 26.476562 18.34375 C 26.566406 18.234375 26.675781 18.15625 26.804688 18.113281 L 26.835938 18.21875 C 26.726562 18.253906 26.636719 18.316406 26.558594 18.414062 Z M 27.207031 18.136719 C 27.320312 18.1875 27.421875 18.277344 27.503906 18.40625 L 27.414062 18.464844 C 27.34375 18.355469 27.257812 18.28125 27.164062 18.234375 Z M 27.664062 18.761719 C 27.675781 18.796875 27.683594 18.832031 27.695312 18.871094 C 27.714844 18.953125 27.738281 19.042969 27.761719 19.128906 L 27.65625 19.160156 C 27.632812 19.070312 27.609375 18.980469 27.589844 18.898438 C 27.582031 18.863281 27.570312 18.828125 27.5625 18.792969 Z M 27.863281 19.492188 C 27.898438 19.609375 27.933594 19.730469 27.976562 19.851562 L 27.875 19.886719 C 27.832031 19.761719 27.796875 19.640625 27.761719 19.523438 Z M 28.09375 20.210938 C 28.136719 20.328125 28.179688 20.445312 28.222656 20.5625 L 28.121094 20.601562 C 28.078125 20.484375 28.035156 20.363281 27.992188 20.246094 Z M 28.355469 20.910156 C 28.402344 21.027344 28.449219 21.144531 28.496094 21.257812 L 28.398438 21.300781 C 28.351562 21.183594 28.300781 21.066406 28.253906 20.949219 Z M 28.648438 21.605469 C 28.699219 21.71875 28.753906 21.832031 28.804688 21.945312 L 28.710938 21.992188 C 28.65625 21.878906 28.601562 21.765625 28.550781 21.648438 Z M 28.972656 22.289062 C 29.03125 22.402344 29.089844 22.511719 29.148438 22.621094 L 29.054688 22.671875 C 28.996094 22.5625 28.9375 22.449219 28.878906 22.335938 Z M 29.328125 22.949219 C 29.390625 23.058594 29.457031 23.167969 29.519531 23.273438 L 29.429688 23.328125 C 29.363281 23.222656 29.300781 23.113281 29.238281 23.003906 Z M 29.71875 23.59375 C 29.789062 23.699219 29.855469 23.800781 29.925781 23.90625 L 29.839844 23.964844 C 29.769531 23.863281 29.699219 23.757812 29.628906 23.652344 Z M 30.144531 24.210938 C 30.21875 24.3125 30.292969 24.410156 30.371094 24.507812 L 30.289062 24.574219 C 30.210938 24.476562 30.132812 24.375 30.058594 24.273438 Z M 30.144531 24.210938 " fill-opacity="1" fill-rule="nonzero"/><path fill="#231f20" d="M 39.371094 14.304688 L 39.050781 14.113281 L 39.101562 14.019531 L 39.425781 14.214844 Z M 38.726562 13.921875 L 38.40625 13.730469 L 38.460938 13.636719 L 38.78125 13.828125 Z M 38.085938 13.539062 L 37.761719 13.347656 L 37.816406 13.253906 L 38.136719 13.445312 Z M 37.441406 13.15625 L 37.121094 12.964844 L 37.171875 12.871094 L 37.496094 13.0625 Z M 36.796875 12.773438 L 36.476562 12.578125 L 36.53125 12.488281 L 36.851562 12.679688 Z M 36.152344 12.386719 L 35.832031 12.195312 L 35.886719 12.101562 L 36.207031 12.296875 Z M 35.511719 12.003906 L 35.371094 11.921875 L 35.367188 11.917969 C 35.324219 11.890625 35.265625 11.855469 35.191406 11.816406 L 35.242188 11.71875 C 35.320312 11.761719 35.382812 11.796875 35.429688 11.828125 L 35.398438 11.875 L 35.425781 11.828125 L 35.566406 11.910156 Z M 34.859375 11.65625 C 34.742188 11.609375 34.625 11.570312 34.511719 11.539062 L 34.539062 11.4375 C 34.65625 11.46875 34.777344 11.507812 34.898438 11.558594 Z M 34.152344 11.476562 C 34.023438 11.46875 33.90625 11.472656 33.792969 11.488281 L 33.777344 11.382812 C 33.898438 11.363281 34.027344 11.359375 34.160156 11.371094 Z M 33.449219 11.59375 C 33.34375 11.644531 33.246094 11.710938 33.15625 11.796875 L 33.085938 11.714844 C 33.183594 11.625 33.289062 11.550781 33.402344 11.496094 Z M 32.925781 12.078125 C 32.871094 12.160156 32.804688 12.265625 32.71875 12.394531 L 32.628906 12.335938 C 32.714844 12.207031 32.785156 12.101562 32.835938 12.019531 Z M 32.507812 12.71875 C 32.429688 12.839844 32.367188 12.945312 32.320312 13.03125 L 32.226562 12.976562 C 32.273438 12.890625 32.339844 12.785156 32.417969 12.660156 Z M 32.183594 13.363281 C 32.152344 13.488281 32.15625 13.601562 32.195312 13.703125 L 32.097656 13.742188 C 32.046875 13.621094 32.042969 13.484375 32.078125 13.335938 Z M 32.40625 13.976562 C 32.484375 14.046875 32.585938 14.117188 32.707031 14.191406 L 32.652344 14.28125 C 32.523438 14.207031 32.417969 14.132812 32.335938 14.058594 Z M 33.027344 14.363281 C 33.085938 14.394531 33.148438 14.421875 33.214844 14.453125 L 33.363281 14.523438 L 33.320312 14.621094 L 33.167969 14.550781 C 33.101562 14.519531 33.039062 14.488281 32.980469 14.460938 Z M 33.703125 14.6875 C 33.820312 14.742188 33.929688 14.800781 34.039062 14.859375 L 33.992188 14.953125 C 33.882812 14.898438 33.769531 14.839844 33.65625 14.785156 Z M 34.371094 15.039062 C 34.484375 15.101562 34.59375 15.164062 34.699219 15.226562 L 34.644531 15.320312 C 34.539062 15.257812 34.429688 15.195312 34.320312 15.132812 Z M 35.019531 15.425781 C 35.128906 15.496094 35.230469 15.566406 35.332031 15.636719 L 35.269531 15.726562 C 35.171875 15.65625 35.070312 15.585938 34.960938 15.515625 Z M 35.632812 15.863281 C 35.738281 15.941406 35.832031 16.023438 35.925781 16.105469 L 35.855469 16.183594 C 35.765625 16.105469 35.667969 16.027344 35.570312 15.949219 Z M 36.199219 16.367188 C 36.289062 16.460938 36.375 16.554688 36.449219 16.652344 L 36.367188 16.71875 C 36.292969 16.625 36.210938 16.535156 36.121094 16.441406 Z M 36.671875 16.964844 C 36.742188 17.082031 36.800781 17.195312 36.847656 17.308594 L 36.746094 17.351562 C 36.703125 17.242188 36.648438 17.132812 36.582031 17.023438 Z M 36.957031 17.679688 C 36.976562 17.777344 36.984375 17.875 36.988281 17.972656 L 36.878906 17.976562 C 36.878906 17.882812 36.867188 17.792969 36.851562 17.703125 Z M 36.957031 17.679688 " fill-opacity="1" fill-rule="nonzero"/><path fill="#231f20" d="M 27.898438 18.121094 C 27.933594 18.03125 27.984375 17.917969 28.046875 17.777344 L 28.144531 17.824219 C 28.082031 17.960938 28.03125 18.070312 28 18.160156 Z M 28.21875 17.433594 C 28.28125 17.320312 28.34375 17.210938 28.40625 17.105469 L 28.5 17.160156 C 28.433594 17.265625 28.371094 17.375 28.3125 17.484375 Z M 28.617188 16.785156 C 28.691406 16.675781 28.769531 16.578125 28.847656 16.480469 L 28.929688 16.550781 C 28.851562 16.644531 28.777344 16.742188 28.703125 16.847656 Z M 29.101562 16.199219 C 29.195312 16.105469 29.289062 16.019531 29.386719 15.941406 L 29.453125 16.027344 C 29.359375 16.101562 29.269531 16.183594 29.179688 16.273438 Z M 29.699219 15.722656 C 29.816406 15.65625 29.929688 15.601562 30.046875 15.558594 L 30.082031 15.660156 C 29.972656 15.703125 29.863281 15.753906 29.753906 15.816406 Z M 30.417969 15.460938 C 30.542969 15.441406 30.671875 15.433594 30.800781 15.441406 L 30.792969 15.550781 C 30.671875 15.542969 30.554688 15.546875 30.433594 15.566406 Z M 31.136719 15.359375 C 31.261719 15.320312 31.378906 15.277344 31.492188 15.230469 L 31.53125 15.332031 C 31.417969 15.378906 31.296875 15.421875 31.167969 15.460938 Z M 31.820312 15.070312 C 31.9375 15.003906 32.035156 14.933594 32.121094 14.859375 L 32.191406 14.941406 C 32.101562 15.019531 31.996094 15.09375 31.875 15.164062 Z M 32.359375 14.589844 C 32.378906 14.554688 32.398438 14.519531 32.417969 14.480469 L 32.515625 14.523438 C 32.496094 14.566406 32.472656 14.609375 32.449219 14.648438 Z M 32.359375 14.589844 " fill-opacity="1" fill-rule="nonzero"/><path fill="#231f20" d="M 33.964844 15.359375 C 33.941406 15.460938 33.882812 15.582031 33.792969 15.714844 L 33.703125 15.652344 C 33.789062 15.53125 33.839844 15.425781 33.859375 15.335938 Z M 33.539062 16.007812 C 33.449219 16.09375 33.347656 16.171875 33.238281 16.246094 L 33.179688 16.15625 C 33.285156 16.085938 33.378906 16.011719 33.464844 15.929688 Z M 32.902344 16.429688 C 32.792969 16.484375 32.675781 16.53125 32.550781 16.570312 L 32.519531 16.46875 C 32.636719 16.429688 32.75 16.382812 32.859375 16.332031 Z M 32.1875 16.671875 C 32.066406 16.703125 31.945312 16.726562 31.816406 16.746094 L 31.800781 16.636719 C 31.925781 16.617188 32.046875 16.59375 32.164062 16.566406 Z M 31.441406 16.789062 L 31.332031 16.796875 L 31.328125 16.742188 L 31.339844 16.796875 C 31.277344 16.808594 31.195312 16.835938 31.09375 16.875 L 31.054688 16.773438 C 31.164062 16.730469 31.25 16.703125 31.320312 16.691406 L 31.433594 16.679688 Z M 30.761719 17.03125 C 30.65625 17.089844 30.550781 17.152344 30.449219 17.226562 L 30.390625 17.136719 C 30.492188 17.0625 30.601562 16.996094 30.710938 16.933594 Z M 30.164062 17.457031 C 30.074219 17.539062 29.988281 17.628906 29.902344 17.722656 L 29.824219 17.648438 C 29.910156 17.554688 30 17.460938 30.09375 17.378906 Z M 29.671875 18.011719 C 29.601562 18.109375 29.535156 18.214844 29.46875 18.324219 L 29.378906 18.265625 C 29.445312 18.15625 29.511719 18.050781 29.585938 17.949219 Z M 29.296875 18.652344 C 29.269531 18.714844 29.238281 18.78125 29.210938 18.847656 L 29.207031 18.859375 L 29.078125 18.976562 L 29.003906 18.894531 L 29.128906 18.785156 L 29.164062 18.824219 L 29.113281 18.804688 C 29.140625 18.738281 29.171875 18.671875 29.203125 18.605469 Z M 28.796875 19.226562 L 28.515625 19.476562 L 28.445312 19.394531 L 28.726562 19.144531 Z M 28.796875 19.226562 " fill-opacity="1" fill-rule="nonzero"/><path fill="#231f20" d="M 39.644531 15.625 C 39.597656 15.710938 39.535156 15.816406 39.453125 15.945312 L 39.363281 15.886719 C 39.445312 15.757812 39.507812 15.65625 39.554688 15.574219 Z M 39.246094 16.265625 C 39.175781 16.371094 39.105469 16.472656 39.03125 16.574219 L 38.945312 16.507812 C 39.015625 16.410156 39.085938 16.308594 39.15625 16.203125 Z M 38.804688 16.882812 C 38.722656 16.984375 38.644531 17.082031 38.566406 17.175781 L 38.484375 17.109375 C 38.5625 17.015625 38.640625 16.917969 38.71875 16.816406 Z M 38.316406 17.464844 C 38.226562 17.5625 38.136719 17.652344 38.050781 17.734375 L 37.976562 17.65625 C 38.0625 17.574219 38.148438 17.488281 38.238281 17.390625 Z M 37.761719 17.984375 C 37.652344 18.070312 37.546875 18.140625 37.445312 18.195312 L 37.390625 18.101562 C 37.492188 18.046875 37.59375 17.980469 37.695312 17.898438 Z M 37.085938 18.34375 C 37.0625 18.347656 37.042969 18.351562 37.019531 18.355469 C 36.925781 18.375 36.820312 18.378906 36.703125 18.375 L 36.707031 18.265625 C 36.820312 18.269531 36.917969 18.265625 37 18.25 C 37.019531 18.246094 37.039062 18.242188 37.058594 18.238281 Z M 36.328125 18.328125 C 36.210938 18.308594 36.089844 18.277344 35.957031 18.242188 L 35.984375 18.140625 C 36.113281 18.175781 36.234375 18.203125 36.34375 18.222656 Z M 35.59375 18.136719 C 35.480469 18.097656 35.363281 18.054688 35.242188 18.011719 L 35.277344 17.910156 C 35.398438 17.953125 35.515625 17.996094 35.628906 18.03125 Z M 34.886719 17.871094 C 34.777344 17.828125 34.660156 17.777344 34.542969 17.726562 L 34.585938 17.628906 C 34.703125 17.679688 34.816406 17.726562 34.929688 17.773438 Z M 34.199219 17.574219 C 34.089844 17.523438 33.976562 17.46875 33.863281 17.414062 L 33.90625 17.316406 C 34.023438 17.371094 34.132812 17.421875 34.246094 17.476562 Z M 33.523438 17.246094 C 33.410156 17.1875 33.296875 17.128906 33.1875 17.070312 L 33.238281 16.976562 C 33.347656 17.035156 33.460938 17.09375 33.570312 17.148438 Z M 32.855469 16.894531 L 32.835938 16.882812 L 32.886719 16.789062 L 32.90625 16.796875 Z M 32.855469 16.894531 " fill-opacity="1" fill-rule="nonzero"/><path fill="#231f20" d="M 31.339844 17.015625 C 31.425781 17.035156 31.546875 17.066406 31.699219 17.105469 L 31.671875 17.210938 C 31.519531 17.167969 31.402344 17.140625 31.316406 17.121094 Z M 32.0625 17.210938 C 32.179688 17.246094 32.296875 17.285156 32.417969 17.324219 L 32.386719 17.425781 C 32.265625 17.386719 32.148438 17.347656 32.03125 17.3125 Z M 32.773438 17.445312 C 32.890625 17.484375 33.007812 17.527344 33.128906 17.574219 L 33.089844 17.671875 C 32.972656 17.628906 32.855469 17.585938 32.738281 17.546875 Z M 33.476562 17.707031 C 33.59375 17.753906 33.707031 17.800781 33.824219 17.847656 L 33.785156 17.949219 C 33.667969 17.898438 33.554688 17.851562 33.4375 17.808594 Z M 34.167969 17.996094 C 34.285156 18.046875 34.398438 18.097656 34.511719 18.152344 L 34.46875 18.25 C 34.355469 18.195312 34.242188 18.144531 34.125 18.09375 Z M 34.851562 18.308594 C 34.964844 18.363281 35.074219 18.417969 35.1875 18.476562 L 35.140625 18.574219 C 35.027344 18.515625 34.917969 18.460938 34.804688 18.40625 Z M 35.519531 18.648438 C 35.632812 18.707031 35.742188 18.765625 35.851562 18.828125 L 35.800781 18.921875 C 35.691406 18.863281 35.582031 18.804688 35.472656 18.746094 Z M 36.179688 19.011719 L 36.429688 19.15625 L 36.375 19.25 L 36.125 19.105469 Z M 36.179688 19.011719 " fill-opacity="1" fill-rule="nonzero"/><path fill="#231f20" d="M 39.917969 17.703125 C 39.867188 17.785156 39.796875 17.890625 39.710938 18.019531 L 39.625 17.960938 C 39.707031 17.832031 39.777344 17.726562 39.824219 17.648438 Z M 39.5 18.332031 C 39.429688 18.4375 39.355469 18.542969 39.28125 18.640625 L 39.195312 18.578125 C 39.269531 18.476562 39.339844 18.375 39.414062 18.269531 Z M 39.054688 18.941406 C 38.976562 19.046875 38.894531 19.148438 38.816406 19.242188 L 38.738281 19.171875 C 38.8125 19.078125 38.890625 18.980469 38.972656 18.875 Z M 38.570312 19.527344 C 38.480469 19.628906 38.390625 19.71875 38.308594 19.804688 L 38.234375 19.726562 C 38.316406 19.644531 38.402344 19.554688 38.492188 19.457031 Z M 38.019531 20.054688 C 37.988281 20.082031 37.953125 20.105469 37.921875 20.128906 C 37.859375 20.175781 37.796875 20.226562 37.734375 20.285156 L 37.664062 20.207031 C 37.726562 20.144531 37.792969 20.089844 37.859375 20.042969 C 37.890625 20.019531 37.921875 19.996094 37.957031 19.96875 Z M 37.492188 20.5625 C 37.421875 20.652344 37.351562 20.753906 37.28125 20.867188 L 37.191406 20.808594 C 37.265625 20.695312 37.335938 20.589844 37.410156 20.496094 Z M 37.097656 21.191406 C 37.039062 21.296875 36.984375 21.410156 36.925781 21.53125 L 36.832031 21.484375 C 36.886719 21.363281 36.945312 21.25 37.003906 21.140625 Z M 36.773438 21.878906 C 36.726562 21.988281 36.679688 22.105469 36.636719 22.222656 L 36.539062 22.183594 C 36.582031 22.0625 36.628906 21.949219 36.675781 21.835938 Z M 36.511719 22.574219 C 36.488281 22.648438 36.46875 22.710938 36.453125 22.753906 L 36.351562 22.722656 C 36.367188 22.675781 36.386719 22.617188 36.410156 22.539062 Z M 36.511719 22.574219 " fill-opacity="1" fill-rule="nonzero"/><path fill="#2a0aef" d="M 32.792969 13.757812 C 32.792969 13.757812 31.621094 12.898438 31.722656 12.578125 C 31.824219 12.257812 32.117188 11.875 32.253906 11.875 C 32.253906 11.875 32.171875 12.152344 32.359375 12.289062 C 32.550781 12.425781 33.550781 13.125 33.363281 13.585938 C 33.171875 14.050781 32.964844 13.886719 32.792969 13.757812 Z M 32.792969 13.757812 " fill-opacity="1" fill-rule="nonzero"/><path fill="#2a0aef" d="M 33.832031 12.574219 C 34.035156 13.050781 34.800781 14.933594 35.878906 18.640625 L 36.3125 19.425781 L 36.972656 21.613281 L 37.234375 21.46875 C 37.234375 21.46875 36.558594 19.460938 36.671875 18.601562 C 36.789062 17.738281 34.785156 11.910156 34.238281 11.875 C 33.964844 11.859375 33.851562 12.003906 33.804688 12.152344 C 33.757812 12.289062 33.773438 12.441406 33.832031 12.574219 Z M 33.832031 12.574219 " fill-opacity="1" fill-rule="nonzero"/><path fill="#4a0104" d="M 31.679688 13.707031 L 27.949219 13.894531 L 27.78125 13.707031 L 25.960938 15.015625 L 25.359375 16.273438 L 24.101562 17.070312 L 23.558594 17.394531 L 23.121094 17.867188 L 22.707031 18.175781 L 21.429688 18.628906 C 21.429688 18.628906 19.378906 18.546875 19.898438 19.980469 C 20.15625 20.136719 21.644531 19.277344 21.972656 19.25 C 24.082031 19.09375 22.863281 20.90625 22.863281 20.90625 C 22.863281 20.90625 23.292969 20.175781 24.28125 19.714844 C 24.847656 19.449219 27.390625 17.453125 27.390625 17.453125 L 28.996094 15.347656 L 31.722656 14.316406 Z M 31.679688 13.707031 " fill-opacity="1" fill-rule="nonzero"/><path fill="#2a0aef" d="M 29.546875 14.222656 L 31.722656 13.933594 L 31.558594 13.054688 L 28.15625 13.4375 C 28.15625 13.4375 27.515625 13.164062 27.558594 12.578125 C 27.558594 12.578125 27.089844 12.988281 27.527344 13.667969 L 26.753906 14.375 L 27.078125 14.503906 L 26.796875 14.96875 L 26.230469 14.78125 C 26.230469 14.78125 25.90625 14.550781 25.546875 14.9375 C 25.1875 15.324219 24.980469 15.5 25.167969 15.71875 C 25.351562 15.9375 25.503906 15.972656 25.503906 15.972656 L 25.894531 15.566406 L 26.210938 15.71875 L 25.722656 16.148438 C 25.722656 16.148438 25.320312 16.058594 24.90625 16.414062 C 24.492188 16.765625 24.492188 16.765625 24.492188 16.765625 C 24.492188 16.765625 24.175781 16.675781 23.730469 17.0625 C 23.285156 17.449219 23.066406 17.414062 23.121094 17.867188 L 22.144531 18.308594 C 22.144531 18.308594 23.253906 18.363281 23.566406 18.527344 C 23.882812 18.695312 24.460938 19.421875 24.460938 19.421875 L 23.644531 19.132812 C 23.644531 19.132812 23.492188 18.835938 22.851562 18.9375 L 22.339844 18.925781 L 21.546875 18.40625 C 21.546875 18.40625 21.121094 18.417969 20.71875 18.628906 L 21.691406 19.257812 C 21.691406 19.257812 23.628906 20.457031 23.820312 21.09375 C 23.820312 21.09375 24.210938 21.480469 24.472656 21.09375 C 24.730469 20.710938 24.078125 20.082031 24.078125 20.082031 L 24.839844 19.730469 C 24.839844 19.730469 25.363281 20.367188 25.363281 20.535156 C 25.363281 20.699219 26.167969 21.039062 26.058594 20.046875 C 26.058594 20.046875 26.132812 19.75 25.503906 19.191406 L 25.90625 18.761719 C 25.90625 18.761719 26.4375 19.265625 26.4375 19.453125 C 26.4375 19.640625 27.125 19.742188 27.082031 19.078125 C 27.035156 18.417969 26.515625 18.109375 26.515625 18.109375 C 26.515625 18.109375 27.003906 17.78125 27.394531 17.976562 C 27.785156 18.175781 27.589844 18.78125 28.296875 18.804688 C 29.003906 18.824219 28.394531 17.84375 28.394531 17.84375 L 27.722656 17.207031 L 28.082031 17.207031 L 28.535156 16.535156 C 28.535156 16.535156 29.179688 16.929688 29.277344 17.238281 C 29.277344 17.238281 29.765625 17.535156 29.753906 16.734375 C 29.742188 15.929688 29.113281 15.839844 29.113281 15.839844 C 29.113281 15.839844 29.832031 15.023438 30.429688 15.585938 C 31.027344 16.148438 31.277344 16.246094 31.277344 16.246094 C 31.277344 16.246094 31.796875 16.269531 31.277344 15.464844 C 30.753906 14.660156 29.546875 14.222656 29.546875 14.222656 Z M 23.296875 17.828125 C 23.554688 17.464844 23.835938 17.292969 23.835938 17.292969 C 24.582031 17.367188 24.53125 17.460938 24.449219 17.527344 C 24.363281 17.597656 24.667969 17.742188 24.691406 17.757812 C 24.71875 17.773438 25.269531 18.304688 25.269531 18.304688 Z M 24.632812 16.851562 C 24.632812 16.851562 25.117188 16.707031 25.707031 16.753906 C 26.292969 16.800781 26.292969 16.800781 26.292969 16.800781 L 26.757812 17.394531 C 26.757812 17.394531 26.433594 17.203125 24.632812 16.851562 Z M 28.496094 15.554688 C 28.210938 15.589844 28.011719 16.378906 28.011719 16.378906 C 27.871094 16.214844 26.902344 16.214844 26.902344 16.214844 C 27.078125 15.265625 27.703125 15.203125 27.703125 15.203125 C 27.703125 15.203125 27.480469 15.15625 27.398438 14.796875 C 27.316406 14.433594 27.957031 14.21875 28.023438 14.363281 C 28.089844 14.507812 28.996094 14.929688 28.996094 14.929688 C 28.515625 14.777344 28.496094 15.554688 28.496094 15.554688 Z M 28.496094 15.554688 " fill-opacity="1" fill-rule="nonzero"/></svg>