<svg xmlns="http://www.w3.org/2000/svg" xmlns:xlink="http://www.w3.org/1999/xlink" width="65" zoomAndPan="magnify" viewBox="0 0 48.75 30.000001" height="40" preserveAspectRatio="xMidYMid meet" version="1.0"><defs><clipPath id="a10de9b338"><path d="M 11.898438 2.117188 L 36.703125 2.117188 L 36.703125 26.917969 L 11.898438 26.917969 Z M 11.898438 2.117188 " clip-rule="nonzero"/></clipPath></defs><g clip-path="url(#a10de9b338)"><path fill="#000000" d="M 34.609375 26.917969 L 13.992188 26.917969 C 13.714844 26.917969 13.449219 26.867188 13.191406 26.757812 C 12.9375 26.652344 12.710938 26.503906 12.515625 26.304688 C 12.316406 26.109375 12.167969 25.882812 12.058594 25.628906 C 11.953125 25.371094 11.898438 25.105469 11.898438 24.828125 L 11.898438 4.207031 C 11.898438 3.929688 11.953125 3.664062 12.058594 3.40625 C 12.167969 3.152344 12.316406 2.925781 12.515625 2.730469 C 12.710938 2.535156 12.9375 2.382812 13.191406 2.277344 C 13.449219 2.167969 13.714844 2.117188 13.992188 2.117188 L 34.609375 2.117188 C 34.886719 2.117188 35.15625 2.167969 35.410156 2.277344 C 35.667969 2.382812 35.894531 2.535156 36.089844 2.730469 C 36.285156 2.925781 36.4375 3.152344 36.542969 3.40625 C 36.648438 3.664062 36.703125 3.929688 36.703125 4.207031 L 36.703125 24.828125 C 36.703125 25.105469 36.648438 25.371094 36.542969 25.628906 C 36.4375 25.882812 36.285156 26.109375 36.089844 26.304688 C 35.894531 26.503906 35.667969 26.652344 35.410156 26.757812 C 35.15625 26.867188 34.886719 26.917969 34.609375 26.917969 Z M 13.992188 2.71875 C 13.796875 2.722656 13.605469 2.757812 13.425781 2.835938 C 13.242188 2.910156 13.082031 3.015625 12.941406 3.15625 C 12.800781 3.296875 12.695312 3.457031 12.617188 3.640625 C 12.542969 3.820312 12.503906 4.011719 12.503906 4.207031 L 12.503906 24.828125 C 12.503906 25.023438 12.542969 25.214844 12.617188 25.394531 C 12.695312 25.578125 12.800781 25.738281 12.941406 25.878906 C 13.082031 26.019531 13.242188 26.125 13.425781 26.199219 C 13.605469 26.277344 13.796875 26.3125 13.992188 26.316406 L 34.609375 26.316406 C 34.808594 26.3125 34.996094 26.277344 35.179688 26.199219 C 35.363281 26.125 35.523438 26.019531 35.664062 25.878906 C 35.800781 25.738281 35.910156 25.578125 35.984375 25.394531 C 36.0625 25.214844 36.097656 25.023438 36.097656 24.828125 L 36.097656 4.207031 C 36.097656 4.011719 36.0625 3.820312 35.984375 3.640625 C 35.910156 3.457031 35.800781 3.296875 35.664062 3.15625 C 35.523438 3.015625 35.363281 2.910156 35.179688 2.835938 C 34.996094 2.757812 34.808594 2.722656 34.609375 2.71875 Z M 13.992188 2.71875 " fill-opacity="1" fill-rule="nonzero"/></g><path fill="#000000" d="M 16.621094 12.839844 C 16.621094 12.839844 16.152344 15.378906 17.269531 16.195312 C 17.269531 16.195312 18.339844 17.121094 21.75 15.160156 C 21.929688 15.058594 22.113281 14.957031 22.300781 14.867188 L 33.511719 9.332031 L 19.15625 19.0625 C 18.558594 19.472656 17.894531 19.6875 17.167969 19.703125 C 16.351562 19.714844 15.441406 19.449219 15.164062 18.292969 C 15.0625 17.867188 15.066406 17.445312 15.175781 17.027344 C 15.355469 16.308594 15.796875 14.734375 16.621094 12.839844 Z M 16.621094 12.839844 " fill-opacity="1" fill-rule="nonzero"/></svg>